<?xml version="1.0" standalone="no"?>
<!DOCTYPE svg PUBLIC "-//W3C//DTD SVG 1.1//EN" "http://www.w3.org/Graphics/SVG/1.1/DTD/svg11.dtd" >
<svg xmlns="http://www.w3.org/2000/svg" xmlns:xlink="http://www.w3.org/1999/xlink" version="1.1">
<metadata></metadata>
<defs>
<font id="cartwheelregular" horiz-adv-x="962" >
<font-face units-per-em="2048" ascent="1536" descent="-512" />
<missing-glyph horiz-adv-x="614" />
<glyph horiz-adv-x="0" />
<glyph horiz-adv-x="682" />
<glyph unicode=" "  horiz-adv-x="614" />
<glyph unicode="&#x09;" horiz-adv-x="614" />
<glyph unicode="&#xa0;" horiz-adv-x="614" />
<glyph unicode="!" horiz-adv-x="471" d="M41 1313q0 57 11 76.5t48 33.5q86 15 146 15q57 0 119 -15q63 -10 63 -125q0 -16 -2.5 -46t-3.5 -40v-10q-59 -734 -96 -801q-30 -55 -113 -55h-8q-75 3 -92 55q-10 27 -27 230t-29 392l-12 189q-4 82 -4 101zM84 127q0 51 34.5 89.5t96.5 39.5q61 -1 96 -39.5t35 -89.5 t-35 -89t-96 -38q-62 0 -96.5 38t-34.5 89z" />
<glyph unicode="&#x22;" horiz-adv-x="595" d="M61 1294q0 51 5 80.5t20 42t28.5 15t43.5 2.5q31 0 44 -2.5t26.5 -15.5t17.5 -41.5t6 -80.5v-55q0 -301 -45 -311q-14 -4 -41 -4l-43 4q-27 10 -44.5 128.5t-17.5 237.5zM352 1294q0 51 5 80.5t20 42t28.5 15t43.5 2.5q31 0 44 -2.5t26.5 -15.5t17.5 -41.5t6 -80.5v-55 q0 -301 -45 -311q-14 -4 -41 -4l-43 4q-27 10 -44.5 128.5t-17.5 237.5z" />
<glyph unicode="#" horiz-adv-x="1103" d="M23 547q0 31 14 45t49 16h129q35 115 59 230q-28 -2 -59 -2q-65 0 -82 12q-19 10 -28 20t-15 31q-6 18 -6 41q0 31 14 45q15 15 49 19q6 0 63 -1.5t112 -1.5l22 95q4 19 11.5 49t30 88.5t44.5 75.5q21 24 47 24q31 0 88 -28q25 -19 25 -48q0 -20 -9 -50t-31.5 -92 t-37.5 -109q88 3 219 10l21 80q4 19 11 49t29.5 88.5t45.5 75.5q21 24 47 24q31 0 88 -28q22 -17 22 -48q0 -12 -3 -28t-10.5 -39t-14.5 -43t-20 -56.5t-23 -64.5h34q78 0 101 -16q28 -14 28 -66q0 -29 -4 -47q-6 -21 -23.5 -28t-53.5 -7q-12 0 -54 2t-73 2q-8 -36 -62 -237 h12q41 4 82 4q63 0 86 -15q29 -14 29 -69q0 -29 -4 -47q-6 -19 -23 -26t-53 -7q-15 0 -70 2t-98 2l-22 -90q-37 -153 -72 -182q-19 -20 -37 -29t-53 -10q-62 0 -78 39q-8 12 -8 24q0 16 8 47q3 8 23.5 71t38.5 122q-197 -12 -211 -12l-19 -70q-35 -153 -72 -182 q-19 -21 -36.5 -29.5t-53.5 -9.5h-8q-14 0 -26.5 5t-18 9.5t-14.5 15t-10 11.5q-9 18 -9 26q0 13 6 43q13 34 58 170q-72 0 -92 15q-33 11 -43 51q-6 18 -6 39zM408 610l217 11q28 89 65 239q-73 -6 -223 -12z" />
<glyph unicode="$" horiz-adv-x="899" d="M20 852q0 64 27 152q71 216 303 307q0 9 -1 25t-1 22q0 82 33 98q25 14 55 14q31 0 55.5 -15t32.5 -36q9 -25 15 -63q2 0 5 1t5 1q76 26 127 26q31 0 45 -4q3 0 8 -1t18.5 -6t25.5 -13.5t26.5 -26t23.5 -41.5q49 -123 49 -284q-92 18 -186 18q-70 0 -141 -12 q0 -123 2 -195q56 -1 100 -9.5t72 -23t43 -25t29 -26.5l14 -16q57 -72 57 -184q0 -123 -80 -267q-81 -116 -217 -159q0 -29 2 -41q0 -50 -14 -70q-15 -21 -70 -21q-4 0 -11.5 1.5t-10.5 1.5q-59 11 -74 53q-4 10 -8 45q-68 -8 -123 -8q-37 0 -51 2q-34 3 -58 12t-38 25 t-20.5 29.5t-14.5 35.5l-4 12q-9 27 -9 72q0 20 13 219q97 -61 227 -61q43 0 66 4v213q-15 -1 -35.5 -4.5t-34.5 -5.5q-16 -2 -43 -2q-48 0 -86.5 9.5t-53.5 19.5l-14 9q-3 2 -8.5 6.5t-19.5 21.5t-24.5 37t-19 54.5t-8.5 73.5zM258 883q0 -14 10 -27t20 -19l11 -6 q27 -6 68 -10v156q-42 -18 -84 -53q-25 -22 -25 -41zM547 639q2 -29 2.5 -90t1.5 -82q92 44 98 100q0 25 -23 43t-46 24l-23 5h-10z" />
<glyph unicode="%" horiz-adv-x="1185" d="M25 121v14q0 29 36 78q119 139 314 393q74 96 180.5 241.5t176.5 242.5l69 98q6 8 16 22.5t38.5 51.5t54.5 67t56.5 58t51.5 36q30 13 39 13q47 0 104 -90q8 -24 8 -35q0 -29 -23 -68t-56 -77.5t-100.5 -120t-125.5 -158.5l-479 -658q-14 -21 -37 -52.5t-73 -89 t-74 -67.5q-40 -14 -58 -14q-23 0 -53 12q-65 32 -65 103zM25 1100q0 149 69 229q8 15 27 27q68 76 190 76h19q54 -3 96 -29t64 -59.5t36 -74t17.5 -66.5t3.5 -44l1 -5q0 -6 0.5 -16t0.5 -20q0 -156 -70 -241q-4 -6 -10.5 -12.5t-13.5 -12.5t-9 -8q-3 -4 -14.5 -13.5 t-15.5 -13.5q-26 -16 -47 -24q-57 -17 -107 -17h-14q-44 1 -79.5 16.5t-58 38t-39 52.5t-24 55.5t-12.5 52.5t-5.5 38.5t-0.5 17.5q-4 4 -4 53zM131 1047q0 -30 21 -67t55 -44q1 0 3.5 -2t4.5 -2h12q51 0 103 35q26 13 47 34l29 31q34 60 34 127q0 31 -19 69t-52 46 q-4 0 -12.5 1t-12.5 1q-47 0 -102 -33q-51 -37 -72 -65q-30 -43 -39 -131zM639 315q0 157 70 242q8 12 28 27q67 75 185 75h18q60 -3 104.5 -32t65.5 -65t34 -80t15 -65t2 -32q0 -4 1 -17.5t1 -23.5q0 -156 -69 -240q-6 -8 -17.5 -19.5t-15.5 -16.5q-12 -12 -31 -23 q-7 -5 -47 -25q-45 -18 -96 -18q-4 0 -12.5 1t-12.5 1q-101 6 -161 86.5t-60 188.5q0 1 -1 13t-1 23zM748 274q0 -30 19.5 -67t53.5 -45q1 0 3.5 -1t4.5 -1h13q49 0 104 33q22 11 47 36l29 31q32 59 35 125q0 32 -20.5 70t-53.5 45q-3 0 -11.5 2t-10.5 2q-47 0 -99 -35 q-38 -18 -76 -63q-38 -50 -38 -132z" />
<glyph unicode="&#x26;" horiz-adv-x="1140" d="M41 297q0 72 39 162q58 135 166 250q-121 171 -121 344q0 118 58.5 211t172.5 143q54 23 129 23q132 0 238 -62q147 -90 147 -238q0 -83 -47 -172q-47 -94 -205 -264q4 -4 63.5 -74t92.5 -98q20 25 53 85t45 79q28 43 56 43q13 0 30 -14q66 -58 66 -123q0 -31 -15 -68 t-31 -62.5t-48 -70.5l-8 -12l-11 -14q2 -2 22 -22.5t25.5 -25t23 -21.5t27.5 -24t26.5 -19t31.5 -20t31 -14q-15 -22 -38 -55.5t-74.5 -93t-78.5 -66.5q-6 -2 -20 -2q-19 0 -37 8.5t-41 33.5t-38 43.5t-48 62.5q-68 -63 -165 -106.5t-191 -43.5q-100 0 -174 51 q-152 104 -152 246zM305 315q0 -65 41 -86q17 -10 49 -10q96 0 187 84q-67 96 -189 223q-88 -115 -88 -211zM371 1040q0 -120 73 -184q70 49 130.5 122.5t60.5 135.5q0 73 -96 107q-20 4 -31 4q-65 0 -101 -54.5t-36 -130.5z" />
<glyph unicode="'" horiz-adv-x="307" d="M61 1294q0 51 5 80.5t20 42t28.5 15t43.5 2.5q31 0 44 -2.5t26.5 -15.5t17.5 -41.5t6 -80.5v-55q0 -301 -45 -311q-14 -4 -41 -4l-43 4q-27 10 -44.5 128.5t-17.5 237.5z" />
<glyph unicode="(" horiz-adv-x="737" d="M43 717v22q0 3 1 14t1 19q14 226 77 365q133 290 468 299q42 -3 67 -47t25 -101t-24.5 -98.5t-69.5 -42.5q-289 -14 -289 -408v-8q0 -229 79.5 -335.5t211.5 -106.5q48 0 75 -41t27 -98q0 -60 -27 -104.5t-75 -45.5h-23q-101 0 -184 34t-136 85.5t-93 123.5t-60.5 138 t-32.5 139.5t-15 116.5t-3 80z" />
<glyph unicode=")" horiz-adv-x="737" d="M37 145q0 59 29 101.5t81 42.5q130 0 207.5 110t77.5 340q0 394 -289 408q-47 3 -72.5 45t-25.5 100q0 57 24.5 99t71.5 45q367 -9 489 -352q44 -123 56 -312q0 -8 1 -19t1 -14v-24q0 -38 -3 -81t-15 -116.5t-32.5 -139t-60.5 -137t-93 -123t-136 -85t-184 -33.5h-23 q-48 1 -76 44t-28 101z" />
<glyph unicode="*" horiz-adv-x="837" d="M23 1042q0 11 2 17q4 9 10 12.5t33 9t70 9.5t134 12q23 0 35 2q36 164 49.5 207t30.5 43q24 0 45.5 -37.5t91.5 -200.5q57 3 113 7.5t87.5 7t47.5 2.5q25 0 35.5 -5t13.5 -18q2 -4 2 -10q0 -20 -34 -50t-162 -128q13 -30 27.5 -63.5t23 -53t17.5 -41t13.5 -33.5t9 -23.5 t6 -19t1.5 -12.5q0 -11 -8 -14q-9 -9 -19 -9q-6 0 -12.5 1.5t-17.5 6t-20.5 9t-28 14t-33 17.5t-42.5 22.5t-50 26.5l-50 24q-28 -21 -59 -45t-48.5 -37.5t-36.5 -28t-29 -21.5t-20.5 -13.5t-16.5 -8.5t-11 -2q-7 0 -16 9q-6 12 -6 28q0 42 49 234q-39 22 -99 56 q-83 46 -105.5 62.5t-22.5 34.5z" />
<glyph unicode="+" horiz-adv-x="1085" d="M20 670q0 52 15 71q1 1 4.5 6.5t4.5 6.5t5.5 5t8.5 5t11.5 3t16.5 3q7 0 51.5 -1t85.5 -1q76 0 127 2l60 4l-15 205q-4 30 -4 65q0 63 19 82q27 34 79 45q32 7 56 7q56 0 73 -17q9 -5 13 -8t8 -13t6 -28q0 -7 -1 -51.5t-1 -85.5q0 -76 2 -127l4 -60l201 13q37 6 76 6 q72 0 94 -25q33 -23 33 -106q0 -14 -4 -68q-7 -31 -26 -42t-58 -11q-14 0 -66.5 3t-91.5 3h-41q-2 -1 -104 -8l14 -203q6 -37 6 -78q0 -72 -25 -94q-26 -33 -110 -33q-1 0 -64 5q-31 7 -41 26t-10 57q0 14 2 61.5t2 82.5q0 8 -1 27t-1 28q0 22 -6 105l-209 -17 q-28 -4 -61 -4q-68 0 -86 21q-34 24 -45 77q-7 32 -7 56z" />
<glyph unicode="," horiz-adv-x="509" d="M100 158q0 71 61 127.5t146 56.5q58 0 117 -29q65 -54 65 -143q0 -66 -34 -145t-81 -140.5t-94.5 -103t-74.5 -41.5q-23 0 -23 31q0 6 4 30l45 199q-66 25 -98.5 67t-32.5 91z" />
<glyph unicode="-" horiz-adv-x="901" d="M23 684q0 43 16 59q5 9 8 13t13 8t28 6q6 0 41 -1t66 -1q25 0 157 4l314 8q34 6 75 6q73 0 97 -24q30 -23 30 -86q0 -14 -4 -68q-7 -31 -26 -42t-58 -11q-14 0 -66 3t-91 3h-41l-363 -20q-28 -4 -61 -4q-66 0 -84 20q-33 20 -45 78q-6 27 -6 49z" />
<glyph unicode="." horiz-adv-x="348" d="M23 147q0 58 40 101.5t111 46.5q70 -3 110 -46.5t40 -101.5t-40.5 -101t-111.5 -46q-70 3 -109.5 46t-39.5 101z" />
<glyph unicode="/" horiz-adv-x="901" d="M20 98q0 14 21 66q83 143 217 407q50 98 121 245.5t117 245.5l45 99q10 24 26.5 60t58.5 105t74 87q28 21 52 21q44 0 116 -56q21 -21 21 -51q0 -31 -23 -77t-79.5 -144t-100.5 -186l-315 -670q-9 -21 -24 -53t-51 -92t-60 -74q-42 -31 -84 -31q-19 0 -29 2q-41 7 -72 32 t-31 64z" />
<glyph unicode="0" horiz-adv-x="1085" d="M20 702q0 110 21 214t66 197.5t108.5 164t154 112t197.5 42.5q117 0 212 -59.5t154 -159.5t90.5 -224.5t31.5 -259.5q0 -110 -20.5 -215t-63 -198t-102.5 -163.5t-145.5 -111.5t-186.5 -41q-100 0 -185.5 39t-145.5 106t-102.5 157t-63 191t-20.5 209zM307 739 q0 -126 37 -235q22 -71 78 -109.5t125 -38.5t129.5 38.5t91.5 109.5q31 112 31 213q0 158 -64 265.5t-170 107.5h-8q-67 -2 -117 -32.5t-78 -81t-41.5 -109.5t-13.5 -128z" />
<glyph unicode="1" horiz-adv-x="677" d="M23 1098v14q2 48 30 97.5t67 85.5t78 64.5t66 43.5t27 14q31 21 90 21q42 0 80.5 -12.5t56.5 -36.5q49 -49 49 -218l-2 -51v-104q0 -338 6 -490q12 -215 33 -417q0 -61 -33 -80q-23 -27 -86 -27q-27 0 -57 6q-46 10 -69 25t-44 43q-36 34 -36 196v33v688q-4 -2 -40 -28.5 t-49 -32.5q-8 -4 -22 -4q-21 0 -44 8t-46.5 26t-39 53t-15.5 83z" />
<glyph unicode="2" horiz-adv-x="1044" d="M20 1024q0 62 10.5 97t37.5 77q76 119 193 177.5t249 58.5q130 0 246 -51t190 -147t74 -214q0 -183 -178 -369q-238 -215 -359 -344q67 0 196 5t198 5t106 -2q14 -9 20.5 -15.5t9.5 -17t3 -19t0.5 -31.5t1.5 -44q1 -22 3.5 -50.5t2.5 -37.5q0 -32 -18 -55 q-27 -47 -144 -47h-22h-484h-116q-113 0 -149 9.5t-48 45.5q-6 15 -6 41q0 65 26 166q9 45 48.5 97.5t74.5 82.5l35 29q59 59 231.5 203.5t221.5 202.5q35 38 35 86q0 65 -60 115t-139 50q-82 0 -150 -59q-24 -24 -32.5 -53.5t-8 -57.5t-2.5 -36q0 -39 -47 -65t-108 -26 q-56 0 -95 23.5t-42 71.5z" />
<glyph unicode="3" horiz-adv-x="921" d="M20 1118q0 37 16.5 78t53.5 83t89.5 75.5t132 55t173.5 22.5q101 0 182.5 -33t132.5 -88.5t78 -124.5t27 -144q0 -89 -36.5 -170.5t-106.5 -138.5q68 -70 104.5 -159t36.5 -181q0 -79 -28 -149.5t-81.5 -126.5t-142 -88.5t-200.5 -32.5q-117 0 -202.5 19t-130.5 51 t-65 67t-20 74q0 52 28.5 92.5t57.5 40.5q8 0 12 -2q179 -72 301 -72q98 0 145.5 46.5t47.5 129.5q-1 46 -15.5 77t-41 45.5t-55 20t-67.5 5.5q-19 0 -57 -1t-55 -1q-21 0 -53 4q-22 3 -33.5 38.5t-11.5 82.5t12 79.5t35 32.5h22q152 0 227.5 51t75.5 123q0 61 -52 106.5 t-132 45.5q-113 0 -236 -98q-52 -27 -88 -27q-39 0 -59.5 25.5t-20.5 66.5z" />
<glyph unicode="4" horiz-adv-x="1026" d="M23 1280q0 31 22 42t61 11q1 0 3.5 1t3.5 1q37 6 65 6q86 0 128 -42t42 -144q0 -5 -1 -16t-1 -17v-293q35 3 121 7.5t149 11.5q-4 124 -18 272t-14 185q0 53 14 81t51 41q72 7 103 7q54 0 80.5 -11.5t48.5 -38.5q49 -47 49 -225v-43q2 -96 2 -293q0 -201 6 -299 q15 -261 31 -415q0 -39 -7.5 -55.5t-27.5 -33.5q-45 -20 -96 -20t-99 19t-75 53q-48 39 -48 207v24v254q-160 -31 -387 -31q-78 0 -117.5 17t-43.5 57q0 47 -1.5 81t-5 112t-6.5 190q-3 88 -17.5 183.5t-14.5 113.5z" />
<glyph unicode="5" horiz-adv-x="1085" d="M23 160q0 48 20.5 106t36.5 74q12 10 33 10q19 0 51.5 -14.5t65 -31.5t89 -31.5t117.5 -14.5q55 0 133 16q50 10 77.5 51t27.5 93q0 46 -22 86t-62 61q-51 21 -146 21q-52 0 -149.5 -8.5t-130.5 -8.5q-48 0 -64 11q-22 10 -22 225l2 160q-4 91 -19.5 202t-15.5 140 q0 40 14.5 62t51.5 32l151 10h658q31 0 51 -28t26.5 -64.5t6.5 -81.5q0 -41 -5.5 -74t-13.5 -39q-13 -24 -199 -24q-81 0 -186 4.5t-170 9.5l-65 4v-284q165 22 309 22q85 0 110 -10q112 -50 177 -163.5t65 -244.5q0 -80 -25.5 -152.5t-75.5 -134t-134 -102t-191 -49.5 q-70 -6 -133 -6q-154 0 -256.5 28t-155.5 62q-32 15 -32 76z" />
<glyph unicode="6" horiz-adv-x="1026" d="M20 600v41q0 136 30 252t78 195t111.5 142.5t127.5 100.5t129.5 61t113 33t82.5 9q6 0 13 -1t10 -1q62 -3 89.5 -17.5t43.5 -46.5q11 -16 26 -93.5t24 -147.5l9 -70q-102 41 -225 41q-52 0 -99.5 -10.5t-96.5 -35t-92 -71.5t-72 -113q-29 -102 -29 -188q53 54 116.5 91 t122.5 53t101 22t80 6l39 -2q111 0 180 -115.5t69 -273.5q0 -69 -14.5 -134t-47 -124.5t-79.5 -104.5t-117.5 -71.5t-156.5 -26.5h-8q-10 0 -28 1t-70 12t-100.5 31t-110 65t-109 106t-87 161t-53.5 224zM362 428q0 -80 59.5 -116t145.5 -36q49 0 92.5 11.5t59.5 27.5 q30 21 47.5 61.5t17.5 82.5q0 58 -32 96q-11 16 -53.5 28.5t-94.5 12.5q-76 0 -141 -30t-96 -95q-5 -35 -5 -43z" />
<glyph unicode="7" d="M20 1231q0 130 62 176q36 27 233 27q77 0 172.5 -4t152.5 -8l56 -5q187 -13 217 -90q17 -28 17 -86q0 -37 -7 -83t-13 -74l-7 -27q-90 -351 -133 -570q-42 -210 -70 -407q-21 -70 -49 -70q-17 -10 -47 -10q-46 0 -96 27q-41 19 -60.5 39t-31.5 49q-10 18 -10 57 q0 33 7 76.5t14 70.5l7 27q148 570 160 621q0 4 20.5 77t20.5 76q-6 -2 -65.5 -8t-155 -12t-172.5 -6q-190 0 -205 32q-17 34 -17 105z" />
<glyph unicode="8" horiz-adv-x="985" d="M20 401q0 94 43 180t125 146q-72 56 -110.5 135.5t-38.5 165.5q0 77 30.5 148t87.5 129t149.5 93t207.5 36q102 0 184.5 -33.5t133.5 -89t78.5 -125t27.5 -144.5q0 -89 -36.5 -169.5t-106.5 -137.5q74 -57 112.5 -140.5t38.5 -176.5q0 -80 -29.5 -154t-85 -134t-146 -96 t-202.5 -36q-111 0 -201 34t-146 91.5t-86 128.5t-30 149zM307 428q0 -65 31 -113q44 -73 160 -73q53 0 98.5 19t69.5 54q26 56 26 113q0 77 -48 127.5t-130 50.5h-10q-101 -3 -149 -54t-48 -124zM332 1026q0 -50 24 -100q14 -31 53 -48.5t85 -17.5t86 17.5t63 48.5 q21 46 21 92q0 68 -44 114t-120 46q-87 -1 -127.5 -44.5t-40.5 -107.5z" />
<glyph unicode="9" horiz-adv-x="1026" d="M20 971q0 87 24.5 166.5t72.5 147t130.5 107.5t188.5 40h8q10 0 28 -1t69.5 -12.5t100 -31.5t110 -64.5t109 -106t87 -161.5t53.5 -224v-40q0 -136 -30 -252t-78 -195t-111.5 -142.5t-127 -100.5t-129 -61t-113 -33t-82.5 -9q-6 0 -13 1t-10 1q-62 3 -89.5 17t-43.5 46 q-11 16 -26 94t-24 148l-9 70q102 -41 225 -41q258 0 360 229q29 102 29 189q-53 -54 -116.5 -91t-122.5 -53t-101 -22t-80 -6l-39 2q-111 0 -180.5 115.5t-69.5 273.5zM258 973q0 -57 33 -96q9 -14 43.5 -23.5t79.5 -9.5q81 0 154.5 33t107.5 104q4 28 4 43q0 74 -52 106.5 t-130 32.5q-56 0 -106 -14t-68 -33q-30 -21 -48 -61t-18 -82z" />
<glyph unicode=":" horiz-adv-x="348" d="M23 383q0 58 40 101t111 46q70 -3 110 -46t40 -101t-40.5 -101t-111.5 -46q-70 3 -109.5 46t-39.5 101zM23 842q0 58 40 101t111 46q70 -3 110 -46t40 -101t-40.5 -101.5t-111.5 -46.5q-70 3 -109.5 46.5t-39.5 101.5z" />
<glyph unicode=";" horiz-adv-x="389" d="M41 387q0 56 47.5 99.5t114.5 43.5q47 0 90 -22q49 -41 49 -111q0 -67 -44 -149.5t-96.5 -135.5t-80.5 -53q-17 0 -17 25q0 3 1 6.5t2 9t2 9.5l34 155q-102 41 -102 123zM43 842q0 58 40.5 101t111.5 46q70 -3 109.5 -46t39.5 -101t-40 -101.5t-111 -46.5 q-70 3 -110 46.5t-40 101.5z" />
<glyph unicode="&#x3c;" d="M23 776q0 30 28 66q139 131 234 227q55 56 141 137.5t144 135.5l59 53q13 14 33.5 35t66.5 58.5t70 41.5q12 4 20 4q62 0 111 -80q10 -23 10 -41q0 -31 -32 -70t-140 -149q-12 -14 -107.5 -107t-184.5 -179l-89 -87q-16 -20 -39 -43l39 -43q327 -346 354 -377 q114 -115 152.5 -163t38.5 -84q0 -18 -6 -33q-43 -72 -115 -72q-13 0 -29 4q-24 5 -69 39.5t-78 66.5l-33 31q-194 213 -317 340q-108 110 -234 228q-28 31 -28 61z" />
<glyph unicode="=" d="M20 434q0 43 17 60q5 9 8 12.5t13 7.5t28 6q6 0 41 -1t66 -1q25 0 157 4q64 2 157.5 9t155.5 13l62 7q35 6 76 6q71 0 96 -25q31 -24 31 -86q0 -13 -4 -67q-7 -31 -26 -42t-58 -11q-14 0 -66.5 3t-91.5 3h-41l-424 -41q-28 -4 -61 -4q-66 0 -84 20q-33 20 -45 78 q-7 32 -7 49zM20 844q0 42 17 59q5 9 8 13t13 8t28 6q6 0 41 -1t66 -1q25 0 157 4q64 2 157.5 9t155.5 13l62 7q35 6 76 6q71 0 96 -25q31 -24 31 -86q0 -14 -4 -68q-7 -31 -26 -42t-58 -11q-14 0 -66.5 3t-91.5 3h-41l-424 -41q-28 -4 -61 -4q-66 0 -84 21q-33 20 -45 78 q-7 31 -7 49z" />
<glyph unicode="&#x3e;" d="M20 1407q0 15 11 41q49 80 110 80q9 0 21 -4q24 -4 66.5 -38t73.5 -66l30 -31q221 -201 344 -326q107 -109 233 -227q29 -37 29 -66t-29 -61q-112 -106 -233 -228q-55 -56 -134.5 -141t-131.5 -142l-52 -57q-14 -14 -36.5 -35t-71 -59t-72.5 -43q-16 -4 -28 -4 q-72 0 -115 72q-6 15 -6 32q0 36 39 85.5t151 162.5l354 377q16 20 39 43l-39 43q-353 342 -380 373q-126 128 -149.5 160.5t-23.5 58.5z" />
<glyph unicode="?" horiz-adv-x="921" d="M20 1075q21 189 76 328q38 94 156 94q57 0 119 -16l20 -4q38 -9 62.5 -16t72 -23.5t82 -34t80 -47.5t78 -64.5t64.5 -83.5t51 -106q16 -72 16 -131q0 -151 -79.5 -249.5t-203.5 -98.5q-110 10 -159 10q-81 0 -113.5 -26t-32.5 -95q0 -43 17 -147q-3 -22 -29 -34t-61 -12 q-36 0 -64.5 11t-32.5 30q-49 208 -49 289q0 94 52 134t177 40q68 0 107 -4q14 -2 41 -2q70 0 103.5 22t33.5 58q0 54 -64 112t-151 76q-92 29 -194 29q-111 0 -175 -39zM104 133q0 53 36 91.5t100 41.5q62 -3 97.5 -42.5t35.5 -90.5q0 -53 -35.5 -91.5t-99.5 -41.5 q-62 3 -98 42.5t-36 90.5z" />
<glyph unicode="@" horiz-adv-x="1515" d="M43 545q0 195 71 361.5t193 281.5t289 179.5t356 64.5q152 0 272.5 -73t184.5 -190.5t64 -255.5q0 -255 -103 -413t-278 -158q-80 0 -114 35.5t-42 107.5q-89 -106 -260 -106q-134 0 -207.5 82.5t-73.5 200.5q0 61 19.5 121.5t60 116.5t97 99t137 69t172.5 26 q52 0 110 -9q146 -23 146 -176q0 -55 -25 -162t-27 -124q0 -45 39 -45q70 0 111 83.5t41 233.5q0 145 -96 234.5t-244 89.5q-137 -1 -253.5 -40.5t-205 -114t-138.5 -192t-50 -264.5q0 -137 98 -234.5t244 -97.5q43 0 115.5 8.5t99.5 8.5q85 0 106 -53q9 -27 9 -52 q0 -89 -92.5 -138.5t-241.5 -49.5q-118 0 -222.5 36t-185.5 103t-128.5 172t-47.5 234zM616 729q0 -45 33 -84q43 -35 96 -35q78 0 142.5 69.5t64.5 139.5q0 76 -88 88q-4 0 -12 1t-12 1q-85 0 -154.5 -55t-69.5 -125z" />
<glyph unicode="A" horiz-adv-x="1067" d="M20 152q0 41 10 95.5t20 88.5l9 35q3 6 7 20q-41 30 -41 84q0 17 2 25q0 42 59 71l33 7q52 183 94 364q21 95 37.5 196t25.5 149.5t19 66.5q15 26 28 41t46 29t82 14q80 -2 116 -8.5t62 -24.5q27 -15 53 -70t38 -103l13 -48q78 -278 131 -479l49 8q40 0 53 -11.5 t13 -33.5q-11 -65 -25 -93l-39 -65q28 -85 65 -171.5t56 -134.5t19 -77q0 -46 -47 -74q-113 -51 -170 -51q-32 0 -66 23q-31 19 -56 58t-44 99t-28 97t-23 102l-7 33l-249 -43q-11 -51 -22 -107.5t-16 -88t-13 -65.5t-15 -51t-18.5 -32t-27 -20.5t-38.5 -6.5 q-95 7 -132.5 27t-49.5 57q-13 26 -13 68zM410 627l161 26q-42 191 -82 320q-12 -43 -24.5 -97.5t-31 -139.5t-23.5 -109z" />
<glyph unicode="B" d="M23 1325q0 41 13 63.5t46 32.5q70 13 102 13q62 0 90 -31q64 22 201 22q37 0 123 -4q131 -10 211 -116.5t80 -243.5q0 -83 -33 -159t-98 -128q16 -3 44.5 -29.5t61 -70t55.5 -114t23 -148.5q0 -68 -17.5 -127t-59 -113t-105.5 -91.5t-162 -60t-223 -22.5q-67 0 -144 6 q-12 0 -18 2l-14 2q-44 10 -67.5 25t-43.5 43q-35 35 -35 194v35v670q0 97 -15 212t-15 138zM315 893q16 -2 58 -2q238 0 256 156q-1 73 -57 106t-138 33q-63 0 -119 -17v-276zM322 272q46 -4 86 -4q255 0 274 178q-2 61 -44.5 100t-99 52.5t-126.5 13.5q-46 0 -90 -6v-334z " />
<glyph unicode="C" horiz-adv-x="1026" d="M25 592v41q0 135 29.5 249.5t77 193t111 141.5t126.5 99.5t128 61t112 33t81 8.5q4 0 12 -1t11 -1q62 -3 89.5 -17t43.5 -46q11 -16 26 -98.5t24 -157.5l9 -74q-11 5 -31.5 13.5t-79.5 22t-114 13.5q-238 0 -336 -235q-33 -89 -33 -193q0 -240 211 -313l12 -3 q12 -3 38 -7.5t53 -4.5q183 0 327 181q41 -165 41 -269q0 -34 -6 -55q-33 -59 -141 -115t-268 -63q-10 0 -27.5 1t-69 12t-99.5 31t-109 64.5t-108.5 105t-86.5 160t-53 222.5z" />
<glyph unicode="D" horiz-adv-x="1085" d="M29 1325q0 41 13 63.5t46 32.5q70 13 102 13q61 0 89 -31q82 20 172 20q15 0 51 -4q14 0 43 -4t83 -20t108.5 -41.5t113.5 -75t104 -113.5t74 -164t29 -221v-35q-16 -131 -55.5 -240.5t-91 -184.5t-117.5 -133t-130 -91.5t-132.5 -55t-121 -29t-100.5 -7.5q-50 0 -78 8 l-28 6q-44 10 -66.5 25t-42.5 43q-35 35 -35 193v34v666q0 98 -15 211.5t-15 134.5zM340 913q0 -224 6 -335q8 -164 12 -199h23q105 0 191 57.5t133 152t47 202.5q0 135 -84.5 222t-221.5 87q-43 0 -106 -13v-174z" />
<glyph unicode="E" d="M23 1323q0 41 14 63.5t51 32.5q76 13 113 13q45 0 70 -12.5t42 -35.5q14 -11 23 -32q44 11 82 18q124 23 282 23q86 0 127 -4q60 -6 60 -62q0 -34 -20 -76t-48 -71q-33 -29 -96.5 -48t-115.5 -25.5t-135.5 -13.5t-109.5 -10v-241q153 32 400 32q57 -5 57 -43 q0 -14 -6 -32q-11 -41 -29 -73.5t-37.5 -54.5t-50.5 -39t-55.5 -26.5t-66.5 -17t-70 -11t-78 -8.5l-59 -6v-280q56 14 129 22t117.5 10.5t139.5 5t119 3.5q60 -6 60 -62q0 -34 -20 -76t-48 -71q-25 -24 -69 -44t-75 -28l-32 -8q-204 -33 -364 -33q-101 0 -148 16 q-17 5 -33 19q-28 14 -47 39q-41 37 -41 194v39q0 72 -1 219.5t-1 223.5q0 147 2 223q-3 94 -17.5 207t-14.5 141z" />
<glyph unicode="F" horiz-adv-x="921" d="M23 1262q0 110 53 118q69 12 203.5 24.5t234.5 19.5l100 6q116 2 177 2h32q23 -2 44.5 -17t21.5 -47q0 -14 -6 -35q-11 -39 -23 -59t-47 -53q-25 -24 -75 -43t-87 -26l-37 -7q-102 -25 -262 -43v-264q47 9 104.5 18t91.5 14l34 4q90 17 174 17q59 -5 59 -43 q0 -31 -25 -87.5t-51 -80.5t-65.5 -44.5t-65.5 -29.5l-26 -8q-103 -25 -226 -43v-283q0 -57 -7.5 -100t-27 -83.5t-60.5 -62.5t-101 -22q-10 0 -20.5 3t-29.5 20t-33 46t-25 88t-11 138v686q0 47 -9 143t-9 134z" />
<glyph unicode="G" horiz-adv-x="1044" d="M23 602v41q0 136 30 252t78 195t111.5 142.5t127 100.5t129 61t113 33t82.5 9q69 0 115 -21q180 -66 180 -227q0 -68 -26 -129q-2 -12 -17 -12q-7 0 -16.5 3t-15.5 6l-5 3q-11 5 -31.5 13.5t-79.5 22t-114 13.5q-240 0 -340 -238q-33 -112 -33 -213q0 -165 83 -261.5 t222 -96.5q58 0 125 18q5 22 11 60.5t14.5 98.5t15.5 102q-231 -23 -276 -23l-14 1q-13 0 -18 2t-14.5 6t-13.5 14t-4 24q0 9 4 29l5 12q1 4 4.5 15.5t4.5 15t4 12t5 13t6.5 12.5t9 15.5t11.5 16.5q19 22 88.5 44t129.5 33l60 11q15 3 31 3q59 0 112 -22t70 -64 q25 -45 25 -191q0 -123 -25 -248q-14 -56 -28.5 -94t-44.5 -82t-70.5 -70t-108 -43.5t-155.5 -17.5q-10 0 -28 1t-69.5 12t-100 31t-110 65t-109 106t-87 161t-53.5 224z" />
<glyph unicode="H" horiz-adv-x="1085" d="M20 635q0 2 5 37q0 43 61 71q-4 179 -12.5 309.5t-15.5 192.5t-7 84q0 40 14.5 63t51.5 33q83 13 119 13q80 0 112 -47q47 -47 47 -232v-37v-295q27 5 128.5 21.5t164.5 28.5q-5 154 -20 290.5t-15 155.5q0 41 15.5 65t52.5 37q72 7 102 7q53 0 80 -11t49 -37 q47 -45 47 -208l-2 -62v-205q42 0 55 -11.5t13 -35.5q-11 -64 -25 -92q-22 -43 -43 -72q0 -123 4 -174q7 -93 39 -418q0 -40 -7.5 -55.5t-28.5 -32.5q-42 -18 -89 -18q-30 0 -61 8q-89 12 -121 62q-45 38 -45 204v27v285q-106 -20 -289 -58v-8q6 -84 12 -158.5t10 -113 t9 -80.5t6 -53q0 -12 -0.5 -22t-3 -17.5t-3.5 -12t-6 -11t-6.5 -8l-8.5 -8.5l-9 -9q-35 -23 -104 -23q-13 0 -45 4q-56 14 -80 27.5t-39 40.5q-45 41 -45 213v18v232q-66 25 -66 96z" />
<glyph unicode="I" horiz-adv-x="489" d="M43 1331q0 41 15.5 65t52.5 34q59 10 112 10q82 0 115 -45q53 -51 53 -224q0 -3 -0.5 -18.5t-1 -59.5t-0.5 -116q0 -318 8 -455q9 -189 33 -422q0 -74 -35 -82q-26 -26 -94 -26q-27 0 -61 6q-49 10 -73.5 25t-47.5 43q-41 37 -41 202v31v678q-4 94 -19.5 209t-15.5 145z " />
<glyph unicode="J" horiz-adv-x="985" d="M20 436q0 32 40 70t97.5 76t65.5 45q12 4 17 4q19 0 36 -24.5t30.5 -57t38 -76.5t52.5 -74q49 -65 125 -65q41 0 72 25.5t41 76.5q8 107 8 236q0 66 -2 134.5t-4 113.5t-2 53q0 99 -17.5 214.5t-17.5 137.5q0 41 15.5 64.5t52.5 33.5q65 11 112 11q82 0 115 -45 q51 -51 51 -238v-680v-31q0 -102 -17 -177t-59.5 -137t-122.5 -94t-198 -32q-154 0 -270 70q-52 32 -98 86t-71 100.5t-48.5 94t-32.5 59.5t-9 26z" />
<glyph unicode="K" horiz-adv-x="1003" d="M20 1348q0 41 15.5 63.5t52.5 34.5q71 12 115 12q46 0 70 -11.5t46 -35.5q54 -54 54 -225q0 -24 -2 -91.5t-2 -117.5q60 53 80 78l6 6q163 183 288 350q39 49 70 49q43 0 84 -43q35 -36 63.5 -117.5t28.5 -128.5q-22 -35 -145.5 -152t-308.5 -274q-5 -5 -5 -14 q0 -15 17 -29l459 -395q-4 -13 -13.5 -37t-53.5 -97t-105 -146q-14 -25 -43 -25q-38 0 -82 49q-75 84 -196 226.5t-126 148.5l19 -330q0 -8 -1 -18t-4 -22.5t-10 -20.5t-16 -8q-29 -25 -99 -25q-25 0 -55 6q-51 10 -78 24.5t-47 39.5q-41 37 -41 198v39v682 q0 100 -17.5 217.5t-17.5 139.5z" />
<glyph unicode="L" d="M20 1327q0 40 14.5 63t49.5 33q76 13 113 13q46 0 70 -11t44 -34q38 -36 47 -156t13 -505q1 -67 1.5 -106.5t1 -106t1.5 -126.5q0 -57 119 -57q71 0 213 23.5t167 23.5q13 0 21 -4q18 -17 31.5 -79t13.5 -128q0 -126 -45 -137q-48 -9 -209 -21t-289 -12q-131 0 -184 16 q-48 8 -73 22t-48 38q-39 37 -39 192v41v668q0 97 -16.5 212t-16.5 138z" />
<glyph unicode="M" horiz-adv-x="1333" d="M18 1309q0 2 1 7t1 7v20q0 40 14.5 63.5t51.5 33.5q66 12 127 12h16q47 0 68 -14q38 -14 79.5 -68t63.5 -102l23 -47q84 -180 184 -387q8 16 80.5 190.5t81.5 192.5q3 8 8.5 22t23 50.5t34.5 65.5t41 57t45 36q53 12 98 12q53 0 93.5 -13t55.5 -34q54 -52 54 -223l-2 -49 v-174q0 -299 6 -426q15 -232 30 -404q0 -2 1 -7t1 -7t1 -7t1 -7q0 -74 -34 -82q-27 -27 -95 -27q-27 0 -61 6q-49 10 -73.5 25t-47.5 43q-41 37 -41 211v32v351q-10 -27 -74.5 -145t-101.5 -167l-8 -10q-16 -21 -26.5 -31t-30.5 -18t-48 -8q-21 0 -36.5 3.5t-27 13t-16.5 14 t-14 19t-10 15.5l-186 312q0 -171 37 -555q0 -74 -35 -82q-27 -27 -95 -27q-26 0 -61 6q-49 10 -73.5 25t-47.5 43q-41 37 -41 203v30v678q0 59 -5.5 114.5t-14 112t-10.5 72.5q-5 20 -5 23z" />
<glyph unicode="N" horiz-adv-x="1185" d="M23 1341q0 41 15 65t52 34q74 12 117 12q46 0 74 -14q38 -13 82 -64.5t69 -97.5l25 -45q14 -24 65 -114t73.5 -128.5t65 -109t79 -126t75.5 -108.5q-4 226 -12.5 383.5t-15.5 225.5t-7 87q0 41 15.5 65t52.5 34q59 10 113 10q81 0 114 -45q53 -51 53 -223l-2 -49v-175 q0 -278 7 -426q11 -199 34 -421q0 -74 -34 -82q-27 -27 -95 -27q-26 0 -61 6q-47 10 -80 29q-20 13 -46 40t-47.5 53.5t-52 68.5t-46.5 66t-44.5 67t-33.5 51q-149 229 -258 397q0 -137 6 -248q10 -176 35 -421q0 -74 -35 -82q-27 -27 -94 -27q-27 0 -62 6q-49 10 -73.5 25 t-47.5 43q-41 37 -41 203v30v678q0 99 -17 215.5t-17 138.5z" />
<glyph unicode="O" horiz-adv-x="1226" d="M35 666q0 113 26 222.5t79 206.5t126.5 171.5t176 117.5t219.5 43h20q88 -2 162.5 -31.5t124 -69.5t89.5 -99.5t61.5 -108t38 -109.5t21.5 -87.5t9 -59.5q2 -8 2 -14l1 -4q1 -4 1 -8q6 -60 6 -125q0 -308 -139 -486q-100 -130 -193.5 -177.5t-222.5 -47.5 q-124 0 -227 37.5t-172.5 100.5t-117.5 149t-69.5 181t-21.5 198zM377 707q0 -89 28 -164.5t88.5 -125.5t141.5 -50q82 0 144.5 56t92 139t29.5 177q0 86 -25.5 158t-82.5 119t-136 47q-90 -1 -155 -54t-95 -132t-30 -170z" />
<glyph unicode="P" horiz-adv-x="944" d="M23 1311q0 41 13 63.5t46 32.5q64 12 102 12q61 0 88 -30q82 20 181 20q102 0 181 -20t144 -66t100 -131t35 -205q0 -77 -10 -141q-27 -93 -87 -162.5t-136 -106.5t-151.5 -54t-151.5 -17h-29q8 -129 8 -254q0 -222 -34 -229q-40 -23 -86 -23l-39 4q-44 10 -66.5 25 t-42.5 43q-35 35 -35 192v35v666q0 98 -15 211.5t-15 134.5zM330 1130l16 -339q7 0 21.5 -1.5t21.5 -1.5q231 0 254 193q0 5 -1 13.5t-6 27t-13.5 35.5t-26 35t-41.5 28q-53 21 -131 21q-46 0 -94 -11z" />
<glyph unicode="Q" horiz-adv-x="1226" d="M20 653q0 113 27 224t81 210.5t129 175t179 120t223 44.5h21q69 -2 129 -20t103.5 -44.5t81 -66.5t61.5 -77t44.5 -86t30.5 -83.5t19 -78.5t11 -62.5t5 -44.5q0 -5 1 -10l1 -6l1 -4q1 -4 1 -8q7 -70 7 -121q0 -243 -89 -410q16 -16 29.5 -28.5t19.5 -16.5l5 -4 q18 -22 73 -45q-5 -8 -13.5 -21.5t-32 -48.5t-44.5 -62.5t-46 -52t-42 -28.5q-16 -4 -22 -4q-21 0 -51 24q-23 23 -58 70q-63 -50 -129 -69t-155 -19q-123 0 -224.5 36.5t-170.5 98.5t-116 146t-68.5 177.5t-21.5 194.5zM350 686q0 -92 29.5 -171t93 -131t148.5 -52 q60 0 114 33q-85 142 -119 180q17 25 46 54.5t45 33.5q8 4 20 4q9 0 23 -7.5t18 -8.5q18 -15 94 -91q37 90 37 199q0 89 -26.5 162.5t-85.5 121.5t-142 48q-71 -1 -128.5 -33.5t-93 -86t-54.5 -119t-19 -136.5z" />
<glyph unicode="R" horiz-adv-x="1003" d="M20 1331q0 42 14 65.5t48 33.5q64 12 102 12q62 0 90 -31q86 21 228 21q26 0 104 -5q20 -1 42.5 -3.5t62 -13t74 -27.5t72.5 -49.5t65 -75.5t45 -109.5t18 -147.5q0 -75 -10 -139q-28 -96 -85.5 -154.5t-150.5 -97.5q28 -49 104.5 -199t125.5 -229q22 -43 22 -61 q0 -5 -4 -14t-4 -13q-7 -25 -33.5 -48t-72.5 -34q-31 -8 -56 -8q-29 0 -65 19q-25 10 -61.5 59t-60.5 93l-24 44l-159 320q-14 -2 -52 -2q-37 0 -49 2q10 -142 10 -275q0 -230 -36 -237q-40 -23 -88 -23l-39 4q-44 10 -66.5 25.5t-42.5 44.5q-37 35 -37 196v33v674 q0 97 -15.5 212t-15.5 138zM322 1157l18 -344q6 0 19 -1t20 -1q40 0 78 4.5t82 18t75.5 35.5t53 60.5t22.5 88.5q0 73 -59.5 114.5t-165.5 41.5q-68 0 -143 -17z" />
<glyph unicode="S" d="M43 811q0 70 29 158q27 81 81.5 153t114.5 118.5t129 84t118 56t89 28.5q71 16 119 16l45 -4q3 0 8 -1t19 -6t26 -14t26 -27t23 -42q24 -58 42.5 -137t25.5 -128l6 -50q-49 16 -115 16q-51 0 -106 -10t-84 -20l-29 -9q-23 -8 -58 -22t-102 -52t-85 -71q-13 -21 -13 -39 q0 -16 10 -25t20 -10l11 -2q23 4 117 8q12 0 32.5 1t30.5 1q216 0 281 -65q59 -74 59 -187q0 -128 -84 -276q-35 -61 -89 -108t-109 -72.5t-120 -41.5t-114.5 -21t-99.5 -5q-48 0 -64 2q-36 3 -60.5 12.5t-39 26.5t-21 30t-14.5 36q-12 37 -12 104q0 78 12 270 q46 -28 117.5 -45.5t142.5 -17.5t129 18q179 63 185 140q0 39 -51 39q-10 0 -21 -1.5t-16 -3.5l-6 -2q-117 -18 -248 -36q-27 -3 -49 -3q-48 0 -87 9.5t-54 19.5l-15 10q-3 2 -8.5 7t-20 22t-25 37.5t-19.5 56t-9 74.5z" />
<glyph unicode="T" horiz-adv-x="1026" d="M25 1245v43q12 -2 36 -2q12 0 36 1t38 1q114 0 260 41q113 31 283.5 68t200.5 37q5 0 13.5 1t12.5 1q33 0 56 -29q23 -31 40 -231q-33 -1 -120.5 -25t-158.5 -48l-71 -24q21 -313 31 -538q8 -162 33 -426q0 -11 -1 -20.5t-1.5 -16t-3.5 -12.5t-4 -9t-5.5 -7.5l-5.5 -5.5 t-7 -5.5t-7 -5.5q-27 -27 -94 -27q-26 0 -60 6q-49 10 -75 25t-48 41q-43 39 -43 207v28v682l-196 -37q-13 -2 -27 -2q-47 0 -65 31q-47 40 -47 258z" />
<glyph unicode="U" horiz-adv-x="1067" d="M20 1335q0 65 58 84q90 17 129 17q83 0 110 -39q28 -28 43.5 -79t18 -89.5t2.5 -95.5v-125q0 -479 31 -566q19 -52 63 -79t98 -27q48 0 90 23.5t64 68.5q29 77 29 281q0 58 -2 122t-4 106.5t-2 47.5q0 97 -17.5 211t-17.5 135q0 39 14.5 61.5t50.5 32.5q62 11 107 11 q41 0 60 -10t36 -33q51 -49 51 -234v-667q0 -7 -0.5 -20t-6 -52t-14 -75.5t-27.5 -84.5t-44 -87t-65.5 -75t-90.5 -55q-136 -43 -239 -43q-104 0 -207 41q-48 19 -87 54t-63.5 76t-43 86t-28 86.5t-15 75t-6.5 53.5l-1 20q-29 446 -33 497q-6 97 -23.5 208t-17.5 138z" />
<glyph unicode="V" horiz-adv-x="1185" d="M23 1311q0 45 47 73q115 52 170 52q30 0 65 -23q36 -20 67.5 -84.5t44.5 -118.5l13 -55q137 -484 209 -711q23 43 63 172.5t74 254.5t35 128q13 56 24 116t17 98t13.5 76t14.5 59.5t18.5 40t27.5 26t39 8.5q95 -7 132.5 -27t49.5 -57q12 -24 12 -65q0 -39 -9.5 -91 t-19.5 -84l-10 -32q-104 -352 -153 -571l-27 -117q-58 -259 -76 -295q-15 -26 -27.5 -41t-45.5 -29t-82 -14q-167 3 -209 33q-27 15 -56 70t-44 103l-15 48q-211 621 -223 674q-27 84 -64 171t-56 135t-19 77z" />
<glyph unicode="W" horiz-adv-x="1683" d="M0 1307q0 45 47 73q115 52 168 52q33 0 68 -23q36 -20 67 -84.5t44 -118.5l14 -55q63 -338 135 -563q32 115 58.5 239.5t55.5 282t48 248.5q24 61 81 61h111q58 0 82 -61l20 -121q67 -410 131 -649q33 100 70 240.5t58 231.5l20 91q5 24 14.5 60.5t42 107t68.5 90.5 q35 23 67 23q54 0 166 -52q47 -28 46 -73q0 -30 -17.5 -78t-53 -135t-61.5 -170l-186 -672q-5 -21 -13.5 -52.5t-35.5 -91.5t-53 -75q-30 -21 -52.5 -26.5t-99.5 -6.5q-36 0 -64.5 15.5t-39.5 28.5t-23 32q0 2 -4 6q-26 38 -50.5 135t-49 223t-37.5 174q-9 -67 -43 -198.5 t-64 -233.5t-30 -104q-47 -78 -144 -78q-75 1 -102 7t-56 26q-27 15 -48 69.5t-29 101.5l-7 48q-168 619 -182 672q-27 83 -63.5 170.5t-55 135.5t-18.5 77z" />
<glyph unicode="X" horiz-adv-x="1249" d="M25 1237q0 30 28 66q126 118 195 118q25 0 41 -8q45 -6 101.5 -62t89.5 -109l34 -52q53 -82 129 -191q18 30 29 41q41 65 80.5 136.5t60.5 112.5t44 77.5t44 52t47 15.5q14 0 35 -7q99 -49 132.5 -85.5t33.5 -77.5q-15 -83 -114 -253t-199 -319l372 -442q29 -45 29 -66 q0 -12 -10 -32q-5 -28 -39.5 -62.5t-93.5 -58.5q-59 -23 -97 -23q-28 0 -61 10q-33 4 -80 53t-78 95l-30 47q-55 82 -127 186q-51 -83 -205 -346q-18 -27 -35 -40t-43 -13q-2 0 -6 -1t-6 -1q-63 0 -133 76q-33 36 -43.5 63.5t-12.5 65.5q0 2 -1 6t-1 6q0 33 28.5 87.5 t56.5 93.5l28 38q84 125 176 258q-24 36 -113 160q-62 82 -141.5 172t-112 133.5t-32.5 79.5z" />
<glyph unicode="Y" horiz-adv-x="1067" d="M18 1249q0 32 27 62q115 110 178 110q13 0 37 -8q41 -6 91 -57t80 -98l30 -48q51 -74 119 -172l26 37q38 59 73.5 123.5t54.5 102t39 70.5t39 47t42 14q12 0 33 -7q91 -44 121 -77.5t30 -71.5q-4 -32 -48 -111.5t-127 -219t-134 -234.5q0 -201 41 -570q0 -70 -33 -105.5 t-94 -35.5q-32 0 -65 8q-42 9 -72.5 35.5t-47 59t-26 78.5t-12 83t-2.5 84v47v330q-17 25 -42 56t-44 52.5t-37.5 41.5t-20.5 22q-54 72 -126.5 155t-101 123.5t-28.5 73.5z" />
<glyph unicode="Z" horiz-adv-x="1044" d="M18 184v72q0 52 100 182t221.5 258t235 249t130.5 151h-240q-52 -4 -109.5 -6.5t-85.5 -4t-72.5 -8.5t-99.5 -22q-51 159 -51 227q0 26 7.5 43.5t19.5 28.5t37.5 19t48.5 12t67 10l47 6q74 10 177 10h110q105 0 190.5 -10t134.5 -25t75.5 -29.5t31.5 -27.5 q17 -33 17 -105q0 -15 -1 -48t-1 -50q-6 -33 -107 -163t-281 -347.5t-255 -312.5h174q192 0 434 39q20 -78 20 -129q0 -78 -39 -144l-8 -10q-21 -24 -41.5 -32.5t-82 -12.5t-212.5 -4h-213h-53h-102t-76 3t-59.5 6.5t-38 14t-28 21.5t-13 33t-9 45t-0.5 61z" />
<glyph unicode="[" horiz-adv-x="696" d="M20 1321q0 41 13 63.5t45 32.5q46 4 55 4h17q221 15 290 15q115 0 135 -17q33 -28 33 -133l-2 -53q1 -3 -0.5 -6.5t-18 -11t-48.5 -9.5l-275 -16l-2 -78v-172q0 -295 6 -422l17 -276q258 0 317 2h8q27 0 42.5 -5t17.5 -11l2 -5q6 -43 6 -90q0 -77 -23 -100 q-35 -33 -407 -33h-12q-12 -2 -50 -2q-40 3 -60.5 19.5t-39.5 48.5q-35 37 -35 196v35v672q0 99 -15.5 214.5t-15.5 137.5z" />
<glyph unicode="\" horiz-adv-x="901" d="M20 1327q0 30 21 51q72 56 115 56q25 0 53 -21q32 -17 72.5 -80t64.5 -117l25 -55q167 -369 280 -590q62 -123 217 -407q21 -49 21 -68q0 -4 -3 -12t-3 -12q-5 -23 -30.5 -43t-66.5 -27q-10 -2 -26 -2q-41 0 -86 31q-24 14 -57.5 68.5t-55.5 102.5l-22 48 q-287 617 -312 670q-45 88 -102.5 186t-81 144t-23.5 77z" />
<glyph unicode="]" horiz-adv-x="696" d="M20 133q0 21 2 43.5t4 34.5l1 12q0 2 1.5 5.5t17 9.5t42.5 6h8q59 -2 318 -2l16 276q6 127 6 422v172q-2 33 -2 78l-274 16q-32 2 -49 8.5t-18 12.5l-1 6q-2 22 -2 53q0 105 33 133q20 17 135 17q70 0 291 -15h16q10 0 56 -4q30 -10 41.5 -30.5t11.5 -57.5 q0 -21 -13.5 -138.5t-13.5 -221.5v-672v-35q0 -159 -35 -196q-13 -21 -22.5 -32.5t-29.5 -22.5t-48 -13q-37 0 -49 2h-12q-373 0 -408 33q-23 23 -23 100z" />
<glyph unicode="^" d="M41 705q0 17 16 42t50 73t61 95l188 367q29 61 64 96q3 7 31 31q39 27 75 27q53 0 76 -37q37 -88 111 -232l166 -317q57 -88 57 -139q0 -13 -2 -17q-3 -20 -32 -36t-97 -35h-12q-18 0 -31 8.5t-24.5 29.5t-21 44.5t-28.5 66.5t-39 82q-4 7 -26.5 50.5t-54.5 105 t-58 104.5l-184 -350q-6 -13 -15.5 -33t-38.5 -57t-55 -45q-20 -8 -33 -8q-38 0 -118 45q-25 19 -25 39z" />
<glyph unicode="_" horiz-adv-x="1208" d="M20 106q0 37 21 58q14 18 55 18h101q112 0 200 2q73 1 215.5 6.5t248.5 11.5l106 5q39 4 84 4q82 0 112 -18q35 -17 35 -80q0 -24 -6 -54q-7 -24 -28 -32.5t-66 -8.5q-17 0 -78 2.5t-107 2.5h-43l-624 -31q-37 -4 -76 -4q-69 0 -90 16q-21 8 -32.5 20t-18.5 39 q-9 21 -9 43z" />
<glyph unicode="`" horiz-adv-x="819" d="M23 1337q0 12 12 27q73 66 119 66h14q27 0 63 -21t58 -42l22 -21q156 -138 260 -218q48 -38 89 -68.5t71.5 -52t34.5 -24.5q20 -17 20 -29q0 -6 -2 -12q-2 -12 -21 -29.5t-52 -31.5q-42 -19 -70 -19q-15 0 -23 2q-20 0 -50 18t-50 36l-20 18q-264 230 -287 250 q-40 31 -94.5 66t-74 51.5t-19.5 33.5z" />
<glyph unicode="a" horiz-adv-x="1067" d="M20 152q0 41 10 95.5t20 88.5l9 35q3 6 7 20q-41 30 -41 84q0 17 2 25q0 42 59 71l33 7q52 183 94 364q21 95 37.5 196t25.5 149.5t19 66.5q15 26 28 41t46 29t82 14q80 -2 116 -8.5t62 -24.5q27 -15 53 -70t38 -103l13 -48q78 -278 131 -479l49 8q40 0 53 -11.5 t13 -33.5q-11 -65 -25 -93l-39 -65q28 -85 65 -171.5t56 -134.5t19 -77q0 -46 -47 -74q-113 -51 -170 -51q-32 0 -66 23q-31 19 -56 58t-44 99t-28 97t-23 102l-7 33l-249 -43q-11 -51 -22 -107.5t-16 -88t-13 -65.5t-15 -51t-18.5 -32t-27 -20.5t-38.5 -6.5 q-95 7 -132.5 27t-49.5 57q-13 26 -13 68zM410 627l161 26q-42 191 -82 320q-12 -43 -24.5 -97.5t-31 -139.5t-23.5 -109z" />
<glyph unicode="b" d="M23 1325q0 41 13 63.5t46 32.5q70 13 102 13q62 0 90 -31q64 22 201 22q37 0 123 -4q131 -10 211 -116.5t80 -243.5q0 -83 -33 -159t-98 -128q16 -3 44.5 -29.5t61 -70t55.5 -114t23 -148.5q0 -68 -17.5 -127t-59 -113t-105.5 -91.5t-162 -60t-223 -22.5q-67 0 -144 6 q-12 0 -18 2l-14 2q-44 10 -67.5 25t-43.5 43q-35 35 -35 194v35v670q0 97 -15 212t-15 138zM315 893q16 -2 58 -2q238 0 256 156q-1 73 -57 106t-138 33q-63 0 -119 -17v-276zM322 272q46 -4 86 -4q255 0 274 178q-2 61 -44.5 100t-99 52.5t-126.5 13.5q-46 0 -90 -6v-334z " />
<glyph unicode="c" horiz-adv-x="1026" d="M25 592v41q0 135 29.5 249.5t77 193t111 141.5t126.5 99.5t128 61t112 33t81 8.5q4 0 12 -1t11 -1q62 -3 89.5 -17t43.5 -46q11 -16 26 -98.5t24 -157.5l9 -74q-11 5 -31.5 13.5t-79.5 22t-114 13.5q-238 0 -336 -235q-33 -89 -33 -193q0 -240 211 -313l12 -3 q12 -3 38 -7.5t53 -4.5q183 0 327 181q41 -165 41 -269q0 -34 -6 -55q-33 -59 -141 -115t-268 -63q-10 0 -27.5 1t-69 12t-99.5 31t-109 64.5t-108.5 105t-86.5 160t-53 222.5z" />
<glyph unicode="d" horiz-adv-x="1085" d="M29 1325q0 41 13 63.5t46 32.5q70 13 102 13q61 0 89 -31q82 20 172 20q15 0 51 -4q14 0 43 -4t83 -20t108.5 -41.5t113.5 -75t104 -113.5t74 -164t29 -221v-35q-16 -131 -55.5 -240.5t-91 -184.5t-117.5 -133t-130 -91.5t-132.5 -55t-121 -29t-100.5 -7.5q-50 0 -78 8 l-28 6q-44 10 -66.5 25t-42.5 43q-35 35 -35 193v34v666q0 98 -15 211.5t-15 134.5zM340 913q0 -224 6 -335q8 -164 12 -199h23q201 0 317 192q6 11 15 31t24 78t15 111q0 135 -84.5 222t-221.5 87q-43 0 -106 -13v-174z" />
<glyph unicode="e" d="M23 1323q0 41 14 63.5t51 32.5q76 13 113 13q45 0 70 -12.5t42 -35.5q14 -11 23 -32q44 11 82 18q124 23 282 23q86 0 127 -4q60 -6 60 -62q0 -34 -20 -76t-48 -71q-33 -29 -96.5 -48t-115.5 -25.5t-135.5 -13.5t-109.5 -10v-241q153 32 400 32q57 -5 57 -43 q0 -14 -6 -32q-11 -41 -29 -73.5t-37.5 -54.5t-50.5 -39t-55.5 -26.5t-66.5 -17t-70 -11t-78 -8.5l-59 -6v-280q56 14 129 22t117.5 10.5t139.5 5t119 3.5q60 -6 60 -62q0 -34 -20 -76t-48 -71q-25 -24 -69 -44t-75 -28l-32 -8q-204 -33 -364 -33q-101 0 -148 16 q-17 5 -33 19q-28 14 -47 39q-41 37 -41 194v39q0 72 -1 219.5t-1 223.5q0 147 2 223q-3 94 -17.5 207t-14.5 141z" />
<glyph unicode="f" horiz-adv-x="921" d="M23 1262q0 110 53 118q69 12 203.5 24.5t234.5 19.5l100 6q116 2 177 2h32q23 -2 44.5 -17t21.5 -47q0 -14 -6 -35q-11 -39 -23 -59t-47 -53q-25 -24 -75 -43t-87 -26l-37 -7q-102 -25 -262 -43v-264q47 9 104.5 18t91.5 14l34 4q90 17 174 17q59 -5 59 -43 q0 -41 -22.5 -89.5t-53.5 -78.5q-26 -24 -65.5 -44.5t-65.5 -29.5l-26 -8q-103 -25 -226 -43v-283q0 -57 -7.5 -100t-27 -83.5t-60.5 -62.5t-101 -22q-10 0 -20.5 3t-29.5 20t-33 46t-25 88t-11 138v686q0 47 -9 143t-9 134z" />
<glyph unicode="g" horiz-adv-x="1044" d="M23 602v41q0 136 30 252t78 195t111.5 142.5t127 100.5t129 61t113 33t82.5 9q69 0 115 -21q180 -66 180 -227q0 -68 -26 -129q-2 -12 -17 -12q-7 0 -16.5 3t-15.5 6l-5 3q-11 5 -31.5 13.5t-79.5 22t-114 13.5q-240 0 -340 -238q-33 -112 -33 -213q0 -165 83 -261.5 t222 -96.5q58 0 125 18q5 22 11 60.5t14.5 98.5t15.5 102q-231 -23 -276 -23l-14 1q-13 0 -18 2t-14.5 6t-13.5 14t-4 24q0 9 4 29l5 12q1 4 4.5 15.5t4.5 15t4 12t5 13t6.5 12.5t9 15.5t11.5 16.5q19 22 88.5 44t129.5 33l60 11q15 3 31 3q59 0 112 -22t70 -64 q25 -45 25 -191q0 -123 -25 -248q-14 -56 -28.5 -94t-44.5 -82t-70.5 -70t-108 -43.5t-155.5 -17.5q-10 0 -28 1t-69.5 12t-100 31t-110 65t-109 106t-87 161t-53.5 224z" />
<glyph unicode="h" horiz-adv-x="1085" d="M20 635q0 2 5 37q0 43 61 71q-4 179 -12.5 309.5t-15.5 192.5t-7 84q0 40 14.5 63t51.5 33q83 13 119 13q80 0 112 -47q47 -47 47 -232v-37v-295q27 5 128.5 21.5t164.5 28.5q-5 154 -20 290.5t-15 155.5q0 41 15.5 65t52.5 37q72 7 102 7q53 0 80 -11t49 -37 q47 -45 47 -208l-2 -62v-205q42 0 55 -11.5t13 -35.5q-11 -64 -25 -92q-22 -43 -43 -72q0 -123 4 -174q7 -93 39 -418q0 -40 -7.5 -55.5t-28.5 -32.5q-42 -18 -89 -18q-30 0 -61 8q-89 12 -121 62q-45 38 -45 204v27v285q-106 -20 -289 -58v-8q6 -84 12 -158.5t10 -113 t9 -80.5t6 -53q0 -12 -0.5 -22t-3 -17.5t-3.5 -12t-6 -11t-6.5 -8l-8.5 -8.5l-9 -9q-35 -23 -104 -23q-13 0 -45 4q-56 14 -80 27.5t-39 40.5q-45 41 -45 213v18v232q-66 25 -66 96z" />
<glyph unicode="i" horiz-adv-x="489" d="M43 1331q0 41 15.5 65t52.5 34q59 10 112 10q82 0 115 -45q53 -51 53 -224q0 -3 -0.5 -18.5t-1 -59.5t-0.5 -116q0 -318 8 -455q9 -189 33 -422q0 -74 -35 -82q-26 -26 -94 -26q-27 0 -61 6q-49 10 -73.5 25t-47.5 43q-41 37 -41 202v31v678q-4 94 -19.5 209t-15.5 145z " />
<glyph unicode="j" horiz-adv-x="985" d="M20 436q0 32 40 70t97.5 76t65.5 45q12 4 17 4q19 0 36 -24.5t30.5 -57t38 -76.5t52.5 -74q49 -65 125 -65q41 0 72 25.5t41 76.5q8 107 8 236q0 66 -2 134.5t-4 113.5t-2 53q0 99 -17.5 214.5t-17.5 137.5q0 41 15.5 64.5t52.5 33.5q65 11 112 11q82 0 115 -45 q51 -51 51 -238v-680v-31q0 -102 -17 -177t-59.5 -137t-122.5 -94t-198 -32q-154 0 -270 70q-52 32 -98 86t-71 100.5t-48.5 94t-32.5 59.5t-9 26z" />
<glyph unicode="k" horiz-adv-x="1003" d="M20 1348q0 41 15.5 63.5t52.5 34.5q71 12 115 12q46 0 70 -11.5t46 -35.5q54 -54 54 -225q0 -24 -2 -91.5t-2 -117.5q60 53 80 78l6 6q163 183 288 350q39 49 70 49q43 0 84 -43q35 -36 63.5 -117.5t28.5 -128.5q-22 -35 -145.5 -152t-308.5 -274q-5 -5 -5 -14 q0 -15 17 -29l459 -395q-4 -13 -13.5 -37t-53.5 -97t-105 -146q-14 -25 -43 -25q-38 0 -82 49q-75 84 -196 226.5t-126 148.5l19 -330q0 -8 -1 -18t-4 -22.5t-10 -20.5t-16 -8q-29 -25 -99 -25q-25 0 -55 6q-51 10 -78 24.5t-47 39.5q-41 37 -41 198v39v682 q0 100 -17.5 217.5t-17.5 139.5z" />
<glyph unicode="l" d="M20 1327q0 40 14.5 63t49.5 33q76 13 113 13q46 0 70 -11t44 -34q38 -36 47 -156t13 -505q1 -67 1.5 -106.5t1 -106t1.5 -126.5q0 -57 119 -57q71 0 213 23.5t167 23.5q13 0 21 -4q18 -17 31.5 -79t13.5 -128q0 -126 -45 -137q-48 -9 -209 -21t-289 -12q-131 0 -184 16 q-48 8 -73 22t-48 38q-39 37 -39 192v41v668q0 97 -16.5 212t-16.5 138z" />
<glyph unicode="m" horiz-adv-x="1333" d="M18 1309q0 2 1 7t1 7v20q0 40 14.5 63.5t51.5 33.5q66 12 127 12h16q47 0 68 -14q38 -14 79.5 -68t63.5 -102l23 -47q84 -180 184 -387q8 16 80.5 190.5t81.5 192.5q3 8 8.5 22t23 50.5t34.5 65.5t41 57t45 36q53 12 98 12q53 0 93.5 -13t55.5 -34q54 -52 54 -223l-2 -49 v-174q0 -299 6 -426q15 -232 30 -404q0 -2 1 -7t1 -7t1 -7t1 -7q0 -74 -34 -82q-27 -27 -95 -27q-27 0 -61 6q-49 10 -73.5 25t-47.5 43q-41 37 -41 211v32v351q-10 -27 -74.5 -145t-101.5 -167l-8 -10q-16 -21 -26.5 -31t-30.5 -18t-48 -8q-21 0 -36.5 3.5t-27 13t-16.5 14 t-14 19t-10 15.5l-186 312q0 -171 37 -555q0 -74 -35 -82q-27 -27 -95 -27q-26 0 -61 6q-49 10 -73.5 25t-47.5 43q-41 37 -41 203v30v678q0 59 -5.5 114.5t-14 112t-10.5 72.5q-5 20 -5 23z" />
<glyph unicode="n" horiz-adv-x="1185" d="M23 1341q0 41 15 65t52 34q74 12 117 12q46 0 74 -14q38 -13 82 -64.5t69 -97.5l25 -45q14 -24 65 -114t73.5 -128.5t65 -109t79 -126t75.5 -108.5q-4 226 -12.5 383.5t-15.5 225.5t-7 87q0 41 15.5 65t52.5 34q59 10 113 10q81 0 114 -45q53 -51 53 -223l-2 -49v-175 q0 -278 7 -426q11 -199 34 -421q0 -74 -34 -82q-27 -27 -95 -27q-26 0 -61 6q-47 10 -80 29q-20 13 -46 40t-47.5 53.5t-52 68.5t-46.5 66t-44.5 67t-33.5 51q-149 229 -258 397q0 -137 6 -248q10 -176 35 -421q0 -74 -35 -82q-27 -27 -94 -27q-27 0 -62 6q-49 10 -73.5 25 t-47.5 43q-41 37 -41 203v30v678q0 99 -17 215.5t-17 138.5z" />
<glyph unicode="o" horiz-adv-x="1226" d="M35 666q0 113 26 222.5t79 206.5t126.5 171.5t176 117.5t219.5 43h20q88 -2 162.5 -31.5t124 -69.5t89.5 -99.5t61.5 -108t38 -109.5t21.5 -87.5t9 -59.5q2 -8 2 -14l1 -4q1 -4 1 -8q6 -60 6 -125q0 -308 -139 -486q-100 -130 -193.5 -177.5t-222.5 -47.5 q-124 0 -227 37.5t-172.5 100.5t-117.5 149t-69.5 181t-21.5 198zM377 707q0 -89 28 -164.5t88.5 -125.5t141.5 -50q82 0 144.5 56t92 139t29.5 177q0 86 -25.5 158t-82.5 119t-136 47q-90 -1 -155 -54t-95 -132t-30 -170z" />
<glyph unicode="p" horiz-adv-x="944" d="M23 1311q0 41 13 63.5t46 32.5q64 12 102 12q61 0 88 -30q82 20 181 20q102 0 181 -20t144 -66t100 -131t35 -205q0 -77 -10 -141q-27 -93 -87 -162.5t-136 -106.5t-151.5 -54t-151.5 -17h-29q8 -129 8 -254q0 -222 -34 -229q-40 -23 -86 -23l-39 4q-44 10 -66.5 25 t-42.5 43q-35 35 -35 192v35v666q0 98 -15 211.5t-15 134.5zM330 1130l16 -339q7 0 21.5 -1.5t21.5 -1.5q231 0 254 193q0 5 -1 13.5t-6 27t-13.5 35.5t-26 35t-41.5 28q-53 21 -131 21q-46 0 -94 -11z" />
<glyph unicode="q" horiz-adv-x="1226" d="M20 653q0 113 27 224t81 210.5t129 175t179 120t223 44.5h21q69 -2 129 -20t103.5 -44.5t81 -66.5t61.5 -77t44.5 -86t30.5 -83.5t19 -78.5t11 -62.5t5 -44.5q0 -5 1 -10l1 -6l1 -4q1 -4 1 -8q7 -70 7 -121q0 -243 -89 -410q16 -16 29.5 -28.5t19.5 -16.5l5 -4 q18 -22 73 -45q-5 -8 -13.5 -21.5t-32 -48.5t-44.5 -62.5t-46 -52t-42 -28.5q-16 -4 -22 -4q-21 0 -51 24q-23 23 -58 70q-63 -50 -129 -69t-155 -19q-123 0 -224.5 36.5t-170.5 98.5t-116 146t-68.5 177.5t-21.5 194.5zM350 686q0 -92 29.5 -171t93 -131t148.5 -52 q60 0 114 33q-85 142 -119 180q17 25 46 54.5t45 33.5q8 4 20 4q9 0 23 -7.5t18 -8.5q18 -15 94 -91q37 90 37 199q0 89 -26.5 162.5t-85.5 121.5t-142 48q-71 -1 -128.5 -33.5t-93 -86t-54.5 -119t-19 -136.5z" />
<glyph unicode="r" horiz-adv-x="1003" d="M20 1331q0 42 14 65.5t48 33.5q64 12 102 12q62 0 90 -31q86 21 228 21q26 0 104 -5q20 -1 42.5 -3.5t62 -13t74 -27.5t72.5 -49.5t65 -75.5t45 -109.5t18 -147.5q0 -75 -10 -139q-28 -96 -85.5 -154.5t-150.5 -97.5q28 -49 104.5 -199t125.5 -229q22 -43 22 -61 q0 -5 -4 -14t-4 -13q-7 -25 -33.5 -48t-72.5 -34q-31 -8 -56 -8q-29 0 -65 19q-25 10 -61.5 59t-60.5 93l-24 44l-159 320q-14 -2 -52 -2q-37 0 -49 2q10 -142 10 -275q0 -230 -36 -237q-40 -23 -88 -23l-39 4q-44 10 -66.5 25.5t-42.5 44.5q-37 35 -37 196v33v674 q0 97 -15.5 212t-15.5 138zM322 1157l18 -344q6 0 19 -1t20 -1q40 0 78 4.5t82 18t75.5 35.5t53 60.5t22.5 88.5q0 73 -59.5 114.5t-165.5 41.5q-68 0 -143 -17z" />
<glyph unicode="s" d="M43 811q0 70 29 158q27 81 81.5 153t114.5 118.5t129 84t118 56t89 28.5q71 16 119 16l45 -4q3 0 8 -1t19 -6t26 -14t26 -27t23 -42q24 -58 42.5 -137t25.5 -128l6 -50q-49 16 -115 16q-51 0 -106 -10t-84 -20l-29 -9q-23 -8 -58 -22t-102 -52t-85 -71q-13 -21 -13 -39 q0 -16 10 -25t20 -10l11 -2q23 4 117 8q12 0 32.5 1t30.5 1q216 0 281 -65q59 -74 59 -187q0 -128 -84 -276q-35 -61 -89 -108t-109 -72.5t-120 -41.5t-114.5 -21t-99.5 -5q-48 0 -64 2q-147 11 -147 209q0 78 12 270q46 -28 117.5 -45.5t142.5 -17.5t129 18q179 63 185 140 q0 39 -51 39q-10 0 -21 -1.5t-16 -3.5l-6 -2q-117 -18 -248 -36q-27 -3 -49 -3q-48 0 -87 9.5t-54 19.5l-15 10q-3 2 -8.5 7t-20 22t-25 37.5t-19.5 56t-9 74.5z" />
<glyph unicode="t" horiz-adv-x="1026" d="M25 1245v43q12 -2 36 -2q12 0 36 1t38 1q114 0 260 41q113 31 283.5 68t200.5 37q5 0 13.5 1t12.5 1q33 0 56 -29q23 -31 40 -231q-33 -1 -120.5 -25t-158.5 -48l-71 -24q21 -313 31 -538q8 -162 33 -426q0 -11 -1 -20.5t-1.5 -16t-3.5 -12.5t-4 -9t-5.5 -7.5l-5.5 -5.5 t-7 -5.5t-7 -5.5q-27 -27 -94 -27q-26 0 -60 6q-49 10 -75 25t-48 41q-43 39 -43 207v28v682l-196 -37q-13 -2 -27 -2q-47 0 -65 31q-47 40 -47 258z" />
<glyph unicode="u" horiz-adv-x="1067" d="M20 1335q0 65 58 84q90 17 129 17q83 0 110 -39q28 -28 43.5 -79t18 -89.5t2.5 -95.5v-125q0 -479 31 -566q19 -52 63 -79t98 -27q48 0 90 23.5t64 68.5q29 77 29 281q0 58 -2 122t-4 106.5t-2 47.5q0 97 -17.5 211t-17.5 135q0 39 14.5 61.5t50.5 32.5q62 11 107 11 q41 0 60 -10t36 -33q51 -49 51 -234v-667q0 -7 -0.5 -20t-6 -52t-14 -75.5t-27.5 -84.5t-44 -87t-65.5 -75t-90.5 -55q-136 -43 -239 -43q-104 0 -207 41q-48 19 -87 54t-63.5 76t-43 86t-28 86.5t-15 75t-6.5 53.5l-1 20q-29 446 -33 497q-6 97 -23.5 208t-17.5 138z" />
<glyph unicode="v" horiz-adv-x="1185" d="M23 1311q0 45 47 73q115 52 170 52q30 0 65 -23q36 -20 67.5 -84.5t44.5 -118.5l13 -55q137 -484 209 -711q23 43 63 172.5t74 254.5t35 128q13 56 24 116t17 98t13.5 76t14.5 59.5t18.5 40t27.5 26t39 8.5q95 -7 132.5 -27t49.5 -57q12 -24 12 -65q0 -39 -9.5 -91 t-19.5 -84l-10 -32q-104 -352 -153 -571l-27 -117q-58 -259 -76 -295q-15 -26 -27.5 -41t-45.5 -29t-82 -14q-167 3 -209 33q-27 15 -56 70t-44 103l-15 48q-211 621 -223 674q-27 84 -64 171t-56 135t-19 77z" />
<glyph unicode="w" horiz-adv-x="1683" d="M0 1307q0 45 47 73q115 52 168 52q33 0 68 -23q36 -20 67 -84.5t44 -118.5l14 -55q63 -338 135 -563q32 115 58.5 239.5t55.5 282t48 248.5q24 61 81 61h111q58 0 82 -61l20 -121q67 -410 131 -649q33 100 70 240.5t58 231.5l20 91q5 24 14.5 60.5t42 107t68.5 90.5 q35 23 67 23q54 0 166 -52q47 -28 46 -73q0 -30 -17.5 -78t-53 -135t-61.5 -170l-186 -672q-5 -21 -13.5 -52.5t-35.5 -91.5t-53 -75q-30 -21 -52.5 -26.5t-99.5 -6.5q-36 0 -64.5 15.5t-39.5 28.5t-23 32q0 2 -4 6q-26 38 -50.5 135t-49 223t-37.5 174q-9 -67 -43 -198.5 t-64 -233.5t-30 -104q-47 -78 -144 -78q-75 1 -102 7t-56 26q-27 15 -48 69.5t-29 101.5l-7 48q-168 619 -182 672q-27 83 -63.5 170.5t-55 135.5t-18.5 77z" />
<glyph unicode="x" horiz-adv-x="1249" d="M25 1237q0 30 28 66q126 118 195 118q25 0 41 -8q45 -6 101.5 -62t89.5 -109l34 -52q53 -82 129 -191q18 30 29 41q41 65 80.5 136.5t60.5 112.5t44 77.5t44 52t47 15.5q14 0 35 -7q99 -49 132.5 -85.5t33.5 -77.5q-15 -83 -114 -253t-199 -319l372 -442q29 -45 29 -66 q0 -12 -10 -32q-5 -28 -39.5 -62.5t-93.5 -58.5q-59 -23 -97 -23q-28 0 -61 10q-33 4 -80 53t-78 95l-30 47q-55 82 -127 186q-51 -83 -205 -346q-18 -27 -35 -40t-43 -13q-2 0 -6 -1t-6 -1q-63 0 -133 76q-33 36 -43.5 63.5t-12.5 65.5q0 2 -1 6t-1 6q0 33 28.5 87.5 t56.5 93.5l28 38q84 125 176 258q-24 36 -113 160q-62 82 -141.5 172t-112 133.5t-32.5 79.5z" />
<glyph unicode="y" horiz-adv-x="1067" d="M18 1249q0 32 27 62q115 110 178 110q13 0 37 -8q41 -6 91 -57t80 -98l30 -48q51 -74 119 -172l26 37q38 59 73.5 123.5t54.5 102t39 70.5t39 47t42 14q12 0 33 -7q91 -44 121 -77.5t30 -71.5q-4 -32 -48 -111.5t-127 -219t-134 -234.5q0 -201 41 -570q0 -70 -33 -105.5 t-94 -35.5q-32 0 -65 8q-42 9 -72.5 35.5t-47 59t-26 78.5t-12 83t-2.5 84v47v330q-17 25 -42 56t-44 52.5t-37.5 41.5t-20.5 22q-54 72 -126.5 155t-101 123.5t-28.5 73.5z" />
<glyph unicode="z" horiz-adv-x="1044" d="M18 184v72q0 52 100 182t221.5 258t235 249t130.5 151h-240q-52 -4 -109.5 -6.5t-85.5 -4t-72.5 -8.5t-99.5 -22q-51 159 -51 227q0 26 7.5 43.5t19.5 28.5t37.5 19t48.5 12t67 10l47 6q74 10 177 10h110q105 0 190.5 -10t134.5 -25t75.5 -29.5t31.5 -27.5 q17 -33 17 -105q0 -15 -1 -48t-1 -50q-6 -33 -107 -163t-281 -347.5t-255 -312.5h174q192 0 434 39q20 -78 20 -129q0 -78 -39 -144l-8 -10q-21 -24 -41.5 -32.5t-82 -12.5t-212.5 -4h-213h-53h-102t-76 3t-59.5 6.5t-38 14t-28 21.5t-13 33t-9 45t-0.5 61z" />
<glyph unicode="&#xad;" horiz-adv-x="901" d="M23 684q0 43 16 59q5 9 8 13t13 8t28 6q6 0 41 -1t66 -1q25 0 157 4l314 8q34 6 75 6q73 0 97 -24q30 -23 30 -86q0 -14 -4 -68q-7 -31 -26 -42t-58 -11q-14 0 -66 3t-91 3h-41l-363 -20q-28 -4 -61 -4q-66 0 -84 20q-33 20 -45 78q-6 27 -6 49z" />
<glyph unicode="&#x2000;" horiz-adv-x="767" />
<glyph unicode="&#x2001;" horiz-adv-x="1534" />
<glyph unicode="&#x2002;" horiz-adv-x="767" />
<glyph unicode="&#x2003;" horiz-adv-x="1534" />
<glyph unicode="&#x2004;" horiz-adv-x="511" />
<glyph unicode="&#x2005;" horiz-adv-x="383" />
<glyph unicode="&#x2006;" horiz-adv-x="255" />
<glyph unicode="&#x2007;" horiz-adv-x="255" />
<glyph unicode="&#x2008;" horiz-adv-x="191" />
<glyph unicode="&#x2009;" horiz-adv-x="306" />
<glyph unicode="&#x200a;" horiz-adv-x="85" />
<glyph unicode="&#x2010;" horiz-adv-x="901" d="M23 684q0 43 16 59q5 9 8 13t13 8t28 6q6 0 41 -1t66 -1q25 0 157 4l314 8q34 6 75 6q73 0 97 -24q30 -23 30 -86q0 -14 -4 -68q-7 -31 -26 -42t-58 -11q-14 0 -66 3t-91 3h-41l-363 -20q-28 -4 -61 -4q-66 0 -84 20q-33 20 -45 78q-6 27 -6 49z" />
<glyph unicode="&#x2011;" horiz-adv-x="901" d="M23 684q0 43 16 59q5 9 8 13t13 8t28 6q6 0 41 -1t66 -1q25 0 157 4l314 8q34 6 75 6q73 0 97 -24q30 -23 30 -86q0 -14 -4 -68q-7 -31 -26 -42t-58 -11q-14 0 -66 3t-91 3h-41l-363 -20q-28 -4 -61 -4q-66 0 -84 20q-33 20 -45 78q-6 27 -6 49z" />
<glyph unicode="&#x2012;" horiz-adv-x="901" d="M23 684q0 43 16 59q5 9 8 13t13 8t28 6q6 0 41 -1t66 -1q25 0 157 4l314 8q34 6 75 6q73 0 97 -24q30 -23 30 -86q0 -14 -4 -68q-7 -31 -26 -42t-58 -11q-14 0 -66 3t-91 3h-41l-363 -20q-28 -4 -61 -4q-66 0 -84 20q-33 20 -45 78q-6 27 -6 49z" />
<glyph unicode="&#x2013;" d="M20 664q0 42 17 59q5 9 8 13t13 8t28 6q6 0 41 -1t66 -1q25 0 157 4q64 2 157.5 9t155.5 13l62 6q35 6 76 6q72 0 96 -24q31 -24 31 -86q0 -14 -4 -68q-7 -31 -26 -42t-58 -11q-14 0 -66.5 3t-91.5 3h-41l-424 -41q-28 -4 -61 -4q-66 0 -84 21q-18 11 -28 27t-17 50 q-7 32 -7 50z" />
<glyph unicode="&#x2014;" horiz-adv-x="1085" d="M20 668q0 56 17 73q5 9 8 13t13 8t28 6q6 0 41 -1t66 -1q25 0 157 4q64 2 188.5 9t217.5 13l92 7q35 6 76 6q71 0 96 -25q31 -24 31 -104q0 -16 -4 -70q-7 -31 -26 -42t-58 -11q-14 0 -66.5 3t-91.5 3h-41l-547 -41q-28 -4 -61 -4q-66 0 -84 21q-18 11 -28 27t-17 50 q-7 32 -7 56z" />
<glyph unicode="&#x202f;" horiz-adv-x="306" />
<glyph unicode="&#x205f;" horiz-adv-x="383" />
<glyph unicode="&#x25fc;" horiz-adv-x="1433" d="M0 0v1434h1434v-1434h-1434z" />
</font>
</defs>
</svg>
